<svg width="8" height="15" viewBox="0 0 8 15" fill="none" xmlns="http://www.w3.org/2000/svg">
<path d="M6.75816 5.46835L2.35941 1.0696C2.17985 0.89111 1.93696 0.790924 1.68378 0.790924C1.43061 0.790924 1.18771 0.89111 1.00816 1.0696C0.918336 1.15869 0.847042 1.26468 0.798388 1.38146C0.749735 1.49825 0.724686 1.62351 0.724686 1.75002C0.724686 1.87653 0.749735 2.00179 0.798388 2.11857C0.847042 2.23535 0.918336 2.34134 1.00816 2.43043L5.41649 6.8196C5.50632 6.90869 5.57761 7.01468 5.62626 7.13146C5.67492 7.24825 5.69997 7.37351 5.69997 7.50002C5.69997 7.62653 5.67492 7.75179 5.62626 7.86857C5.57761 7.98535 5.50632 8.09134 5.41649 8.18043L1.00816 12.5696C0.827701 12.7488 0.725816 12.9923 0.724918 13.2466C0.724019 13.5009 0.824181 13.7452 1.00337 13.9256C1.18256 14.1061 1.42609 14.208 1.6804 14.2089C1.9347 14.2098 2.17895 14.1096 2.35941 13.9304L6.75816 9.53168C7.29655 8.99262 7.59896 8.26189 7.59896 7.50002C7.59896 6.73814 7.29655 6.00741 6.75816 5.46835Z" fill="#2A3037"/>
</svg>
